<svg width="18" height="18" viewBox="0 0 18 18" fill="none" xmlns="http://www.w3.org/2000/svg">
<path d="M17.0683 1.76033L10.1933 16.7603C10.1358 16.886 10.0383 16.989 9.91594 17.0533C9.79363 17.1177 9.65345 17.1396 9.51732 17.1158C9.3812 17.092 9.25681 17.0237 9.16361 16.9217C9.0704 16.8197 9.01364 16.6896 9.0022 16.5519L8.42095 9.57896L1.44801 8.99771C1.3103 8.98627 1.18025 8.92951 1.07822 8.8363C0.976195 8.7431 0.907932 8.61871 0.884112 8.48258C0.860291 8.34646 0.882257 8.20628 0.946573 8.08397C1.01089 7.96166 1.11393 7.86411 1.23958 7.80658L16.2396 0.93158C16.3555 0.878438 16.485 0.862048 16.6105 0.884614C16.7361 0.907179 16.8517 0.967618 16.9419 1.05781C17.0321 1.14801 17.0925 1.26365 17.1151 1.38919C17.1377 1.51474 17.1213 1.64418 17.0681 1.76014L17.0683 1.76033Z" fill="#080809"/>
</svg>
