<svg width="107" height="36" viewBox="0 0 107 36" fill="none" xmlns="http://www.w3.org/2000/svg">
<rect y="0.791016" width="107" height="35" rx="17.5" fill="#080809"/>
<g clip-path="url(#clip0_4_991)">
<path d="M28.5075 17.7928L18.4639 27.464C17.9936 27.1426 17.7144 26.608 17.7193 26.0383V9.54728C17.7144 8.97765 17.9936 8.44301 18.4639 8.12158L28.5075 17.7928Z" fill="#2196F3"/>
<path d="M32.0217 14.4147L28.5074 17.7928L18.4639 8.12155C18.5017 8.09222 18.5411 8.06493 18.5819 8.03982C19.1127 7.7181 19.7757 7.70771 20.3164 8.01258L32.0217 14.4147Z" fill="#4CAF50"/>
<path d="M36.2806 17.7927C36.2872 18.4357 35.9377 19.0297 35.3725 19.3365L32.0217 21.1708L28.5073 17.7927L32.0217 14.4146L35.3725 16.2489C35.9377 16.5556 36.2872 17.1496 36.2806 17.7927Z" fill="#F0BB1F"/>
<path d="M32.0217 21.1711L20.3164 27.5732C19.7745 27.8733 19.114 27.8629 18.5819 27.5459C18.5411 27.5208 18.5017 27.4935 18.4639 27.4642L28.5074 17.793L32.0217 21.1711Z" fill="#F15A2B"/>
</g>
<path d="M48.024 12.6711H45.216V13.7911H46.712C46.512 14.3271 46.024 14.6551 45.28 14.6551C44.192 14.6551 43.52 13.9591 43.52 13.0071C43.52 12.0231 44.224 11.3271 45.168 11.3271C45.8 11.3271 46.304 11.6151 46.536 11.9831L47.624 11.3591C47.152 10.6071 46.248 10.0791 45.176 10.0791C43.528 10.0791 42.24 11.3751 42.24 12.9991C42.24 14.6071 43.504 15.9031 45.264 15.9031C46.832 15.9031 48.024 14.8631 48.024 13.1511V12.6711Z" fill="white"/>
<path d="M49.6256 14.5591V13.5671H51.6256V12.3511H49.6256V11.4231H51.8256V10.1911H48.3456V15.7911H51.8656V14.5591H49.6256Z" fill="white"/>
<path d="M55.9478 10.1911H51.7878V11.4231H53.2278V15.7911H54.5078V11.4231H55.9478V10.1911Z" fill="white"/>
<path d="M57.7081 10.1911V15.7911H58.9881V10.1911H57.7081Z" fill="white"/>
<path d="M63.3103 10.1911H59.1503V11.4231H60.5903V15.7911H61.8703V11.4231H63.3103V10.1911Z" fill="white"/>
<path d="M67.7426 15.9031C69.3506 15.9031 70.6546 14.6391 70.6546 12.9911C70.6546 11.3431 69.3506 10.0791 67.7426 10.0791C66.1346 10.0791 64.8306 11.3431 64.8306 12.9911C64.8306 14.6391 66.1346 15.9031 67.7426 15.9031ZM67.7426 14.6551C66.8306 14.6551 66.1106 13.9911 66.1106 12.9911C66.1106 11.9911 66.8306 11.3271 67.7426 11.3271C68.6546 11.3271 69.3746 11.9911 69.3746 12.9911C69.3746 13.9911 68.6546 14.6551 67.7426 14.6551Z" fill="white"/>
<path d="M74.0953 10.1911V13.2311L71.9353 10.1911H70.9753V15.7911H72.2553V12.7511L74.4153 15.7911H75.3753V10.1911H74.0953Z" fill="white"/>
<path d="M48.024 22.1831V22.3991C48.024 23.0978 47.776 23.6871 47.28 24.1671C46.784 24.6418 46.1307 24.8791 45.32 24.8791C44.4667 24.8791 43.7627 24.6018 43.208 24.0471C42.6533 23.4871 42.376 22.8018 42.376 21.9911C42.376 21.1804 42.6507 20.4978 43.2 19.9431C43.7493 19.3831 44.4453 19.1031 45.288 19.1031C45.8 19.1031 46.2693 19.2258 46.696 19.4711C47.128 19.7164 47.4613 20.0444 47.696 20.4551L47.32 20.6791C47.1333 20.3271 46.856 20.0444 46.488 19.8311C46.1253 19.6178 45.7253 19.5111 45.288 19.5111C44.5627 19.5111 43.9653 19.7511 43.496 20.2311C43.032 20.7058 42.8 21.2924 42.8 21.9911C42.8 22.6898 43.0347 23.2791 43.504 23.7591C43.9733 24.2338 44.5787 24.4711 45.32 24.4711C45.976 24.4711 46.5067 24.2924 46.912 23.9351C47.3173 23.5778 47.544 23.1271 47.592 22.5831H45.216V22.1831H48.024Z" fill="white"/>
<path d="M53.7026 24.0391C53.1426 24.5991 52.4599 24.8791 51.6546 24.8791C50.8493 24.8791 50.1666 24.5991 49.6066 24.0391C49.0466 23.4738 48.7666 22.7911 48.7666 21.9911C48.7666 21.1911 49.0466 20.5111 49.6066 19.9511C50.1666 19.3858 50.8493 19.1031 51.6546 19.1031C52.4599 19.1031 53.1426 19.3858 53.7026 19.9511C54.2626 20.5111 54.5426 21.1911 54.5426 21.9911C54.5426 22.7911 54.2626 23.4738 53.7026 24.0391ZM49.9026 23.7511C50.3826 24.2311 50.9666 24.4711 51.6546 24.4711C52.3426 24.4711 52.9239 24.2311 53.3986 23.7511C53.8786 23.2658 54.1186 22.6791 54.1186 21.9911C54.1186 21.3031 53.8786 20.7191 53.3986 20.2391C52.9239 19.7538 52.3426 19.5111 51.6546 19.5111C50.9666 19.5111 50.3826 19.7538 49.9026 20.2391C49.4279 20.7191 49.1906 21.3031 49.1906 21.9911C49.1906 22.6791 49.4279 23.2658 49.9026 23.7511Z" fill="white"/>
<path d="M60.2339 24.0391C59.6739 24.5991 58.9912 24.8791 58.1859 24.8791C57.3805 24.8791 56.6979 24.5991 56.1379 24.0391C55.5779 23.4738 55.2979 22.7911 55.2979 21.9911C55.2979 21.1911 55.5779 20.5111 56.1379 19.9511C56.6979 19.3858 57.3805 19.1031 58.1859 19.1031C58.9912 19.1031 59.6739 19.3858 60.2339 19.9511C60.7939 20.5111 61.0739 21.1911 61.0739 21.9911C61.0739 22.7911 60.7939 23.4738 60.2339 24.0391ZM56.4339 23.7511C56.9139 24.2311 57.4979 24.4711 58.1859 24.4711C58.8739 24.4711 59.4552 24.2311 59.9299 23.7511C60.4099 23.2658 60.6499 22.6791 60.6499 21.9911C60.6499 21.3031 60.4099 20.7191 59.9299 20.2391C59.4552 19.7538 58.8739 19.5111 58.1859 19.5111C57.4979 19.5111 56.9139 19.7538 56.4339 20.2391C55.9592 20.7191 55.7219 21.3031 55.7219 21.9911C55.7219 22.6791 55.9592 23.2658 56.4339 23.7511Z" fill="white"/>
<path d="M67.4771 22.1831V22.3991C67.4771 23.0978 67.2291 23.6871 66.7331 24.1671C66.2371 24.6418 65.5838 24.8791 64.7731 24.8791C63.9198 24.8791 63.2158 24.6018 62.6611 24.0471C62.1064 23.4871 61.8291 22.8018 61.8291 21.9911C61.8291 21.1804 62.1038 20.4978 62.6531 19.9431C63.2024 19.3831 63.8984 19.1031 64.7411 19.1031C65.2531 19.1031 65.7224 19.2258 66.1491 19.4711C66.5811 19.7164 66.9144 20.0444 67.1491 20.4551L66.7731 20.6791C66.5864 20.3271 66.3091 20.0444 65.9411 19.8311C65.5784 19.6178 65.1784 19.5111 64.7411 19.5111C64.0158 19.5111 63.4184 19.7511 62.9491 20.2311C62.4851 20.7058 62.2531 21.2924 62.2531 21.9911C62.2531 22.6898 62.4878 23.2791 62.9571 23.7591C63.4264 24.2338 64.0318 24.4711 64.7731 24.4711C65.4291 24.4711 65.9598 24.2924 66.3651 23.9351C66.7705 23.5778 66.9971 23.1271 67.0451 22.5831H64.6691V22.1831H67.4771Z" fill="white"/>
<path d="M68.9637 24.3911H71.6037V24.7911H68.5397V19.1911H68.9637V24.3911Z" fill="white"/>
<path d="M72.9091 24.3911H75.7091V24.7911H72.4851V19.1911H75.6691V19.5911H72.9091V21.7671H75.4691V22.1671H72.9091V24.3911Z" fill="white"/>
<path d="M80.7875 19.1911C81.2888 19.1911 81.7048 19.3564 82.0355 19.6871C82.3662 20.0178 82.5315 20.4311 82.5315 20.9271C82.5315 21.4231 82.3662 21.8364 82.0355 22.1671C81.7048 22.4924 81.2888 22.6551 80.7875 22.6551H79.3075V24.7911H78.8835V19.1911H80.7875ZM80.7875 22.2551C81.1715 22.2551 81.4862 22.1298 81.7315 21.8791C81.9822 21.6284 82.1075 21.3111 82.1075 20.9271C82.1075 20.5378 81.9822 20.2178 81.7315 19.9671C81.4862 19.7164 81.1715 19.5911 80.7875 19.5911H79.3075V22.2551H80.7875Z" fill="white"/>
<path d="M84.0028 24.3911H86.6428V24.7911H83.5788V19.1911H84.0028V24.3911Z" fill="white"/>
<path d="M91.4484 24.7911L90.9044 23.3671H88.0964L87.5524 24.7911H87.1044L89.2804 19.1911H89.7284L91.8964 24.7911H91.4484ZM88.2564 22.9671H90.7524L89.5044 19.7111L88.2564 22.9671Z" fill="white"/>
<path d="M95.8809 19.1911L93.8409 22.4871V24.7911H93.4169V22.4871L91.3769 19.1911H91.8569L93.6329 22.0791L95.4009 19.1911H95.8809Z" fill="white"/>
<defs>
<clipPath id="clip0_4_991">
<rect width="20" height="20" fill="white" transform="translate(17 7.79102)"/>
</clipPath>
</defs>
</svg>
