<svg width="100" height="36" viewBox="0 0 100 36" fill="none" xmlns="http://www.w3.org/2000/svg">
<rect y="0.791016" width="100" height="35" rx="17.5" fill="#080809"/>
<path d="M21.7893 24.7909C19.408 24.7771 17.4382 19.9161 17.4382 17.4406C17.4382 13.3967 20.4718 12.5114 21.641 12.5114C22.1678 12.5114 22.7304 12.7183 23.2266 12.9014C23.5736 13.0291 23.9325 13.1609 24.1321 13.1609C24.2516 13.1609 24.5331 13.0488 24.7817 12.9504C25.3118 12.7393 25.9714 12.4771 26.7395 12.4771C26.7409 12.4771 26.7427 12.4771 26.7441 12.4771C27.3176 12.4771 29.0567 12.6029 30.1022 14.1731L30.3471 14.5411L29.9947 14.8071C29.4911 15.187 28.5724 15.8801 28.5724 17.2529C28.5724 18.8789 29.6129 19.5042 30.1128 19.8049C30.3334 19.9377 30.5618 20.0746 30.5618 20.3739C30.5618 20.5694 29.0018 24.7666 26.7363 24.7666C26.182 24.7666 25.7901 24.6 25.4445 24.4531C25.0948 24.3043 24.7931 24.1761 24.2946 24.1761C24.0419 24.1761 23.7224 24.2956 23.3841 24.4224C22.9218 24.5949 22.3985 24.7909 21.8048 24.7909H21.7893Z" fill="white"/>
<path d="M26.9795 8.79102C27.0385 10.9184 25.5171 12.3943 23.9975 12.3017C23.7471 10.604 25.5169 8.79102 26.9795 8.79102Z" fill="white"/>
<path d="M37.98 13.8751H39.03L37.602 9.67513H36.378L34.95 13.8751H36L36.21 13.2151H37.77L37.98 13.8751ZM36.498 12.3151L36.99 10.7731L37.482 12.3151H36.498Z" fill="white"/>
<path d="M40.749 10.7911L40.125 12.6931L39.501 10.7911H38.505L39.615 13.7911H40.635L41.745 10.7911H40.749Z" fill="white"/>
<path d="M46 10.5L44.136 11.0731C43.938 10.8451 43.644 10.7071 43.242 10.7071C42.456 10.7071 41.808 11.3971 41.808 12.2911C41.808 13.1851 42.456 13.8751 43.242 13.8751C43.644 13.8751 43.938 13.7371 44.136 13.5091V13.7911H45.036V10.7911L46 10.5ZM43.422 13.0231C43.008 13.0231 42.708 12.7411 42.708 12.2911C42.708 11.8411 43.008 11.5591 43.422 11.5591C43.836 11.5591 44.136 11.8411 44.136 12.2911C44.136 12.7411 43.836 13.0231 43.422 13.0231Z" fill="white"/>
<path d="M46.492 13.7911H47.392V9.41113H46.492V13.7911Z" fill="white"/>
<path d="M46 10.5C46.294 10.5 46.582 10.2811 46.582 9.98713C46.582 9.69313 46.336 9.44713 46.042 9.44713C45.748 9.44713 45.502 9.69313 45.502 9.98713C45.502 10.2811 45.706 10.5 46 10.5ZM45.592 13.7911H46.492V10.7911H45.592V13.7911Z" fill="white"/>
<path d="M52.6853 10.832C52.2833 10.832 51.9893 10.97 51.7913 11.198V9.716H50.8913V13.916H51.7913V13.634C51.9893 13.862 52.2833 14 52.6853 14C53.4713 14 54.1193 13.31 54.1193 12.416C54.1193 11.522 53.4713 10.832 52.6853 10.832ZM52.5053 13.148C52.0913 13.148 51.7913 12.866 51.7913 12.416C51.7913 11.966 52.0913 11.684 52.5053 11.684C52.9193 11.684 53.2193 11.966 53.2193 12.416C53.2193 12.866 52.9193 13.148 52.5053 13.148Z" fill="white"/>
<path d="M54.3038 13.916H55.2038V9.536H54.3038V13.916Z" fill="white"/>
<path d="M56.4073 12.6511H58.5373C58.5613 12.5371 58.5733 12.4171 58.5733 12.2911C58.5733 11.3851 57.9253 10.7071 57.0493 10.7071C56.1013 10.7071 55.4533 11.3971 55.4533 12.2911C55.4533 13.1851 56.0893 13.8751 57.1153 13.8751C57.6853 13.8751 58.1293 13.6651 58.4233 13.2571L57.7033 12.8431C57.5833 12.9751 57.3733 13.0711 57.1273 13.0711C56.7973 13.0711 56.5213 12.9631 56.4073 12.6511ZM56.3893 11.9791C56.4733 11.6731 56.7013 11.5051 57.0433 11.5051C57.3133 11.5051 57.5833 11.6311 57.6793 11.9791H56.3893Z" fill="white"/>
<path d="M61.9868 13.8751C62.8688 13.8751 63.5768 13.1851 63.5768 12.2911C63.5768 11.3971 62.8688 10.7071 61.9868 10.7071C61.1048 10.7071 60.3968 11.3971 60.3968 12.2911C60.3968 13.1851 61.1048 13.8751 61.9868 13.8751ZM61.9868 12.9991C61.5968 12.9991 61.2968 12.7171 61.2968 12.2911C61.2968 11.8651 61.5968 11.5831 61.9868 11.5831C62.3768 11.5831 62.6768 11.8651 62.6768 12.2911C62.6768 12.7171 62.3768 12.9991 61.9868 12.9991Z" fill="white"/>
<path d="M65.8439 10.7071C65.4479 10.7071 65.1479 10.8511 64.9859 11.0731V10.7911H64.0859V13.7911H64.9859V12.1531C64.9859 11.7271 65.2139 11.5351 65.5439 11.5351C65.8319 11.5351 66.0659 11.7091 66.0659 12.0811V13.7911H66.9659V11.9491C66.9659 11.1391 66.4499 10.7071 65.8439 10.7071Z" fill="white"/>
<path d="M70.8419 11.6551V10.7911H70.2239V9.95113L69.3239 10.2211V10.7911H68.8439V11.6551H69.3239V12.7171C69.3239 13.5571 69.6659 13.9111 70.8419 13.7911V12.9751C70.4459 12.9991 70.2239 12.9751 70.2239 12.7171V11.6551H70.8419Z" fill="white"/>
<path d="M73.1095 10.7071C72.7135 10.7071 72.4135 10.8511 72.2515 11.0731V9.59113H71.3515V13.7911H72.2515V12.1531C72.2515 11.7271 72.4795 11.5351 72.8095 11.5351C73.0975 11.5351 73.3315 11.7091 73.3315 12.0811V13.7911H74.2315V11.9491C74.2315 11.1391 73.7155 10.7071 73.1095 10.7071Z" fill="white"/>
<path d="M75.6536 12.6511H77.7836C77.8076 12.5371 77.8196 12.4171 77.8196 12.2911C77.8196 11.3851 77.1716 10.7071 76.2956 10.7071C75.3476 10.7071 74.6996 11.3971 74.6996 12.2911C74.6996 13.1851 75.3356 13.8751 76.3616 13.8751C76.9316 13.8751 77.3756 13.6651 77.6696 13.2571L76.9496 12.8431C76.8296 12.9751 76.6196 13.0711 76.3736 13.0711C76.0436 13.0711 75.7676 12.9631 75.6536 12.6511ZM75.6356 11.9791C75.7196 11.6731 75.9476 11.5051 76.2896 11.5051C76.5596 11.5051 76.8296 11.6311 76.9256 11.9791H75.6356Z" fill="white"/>
<path d="M41.05 24.7911H42.8L40.42 17.7911H38.38L36 24.7911H37.75L38.1 23.6911H40.7L41.05 24.7911ZM38.58 22.1911L39.4 19.6211L40.22 22.1911H38.58Z" fill="white"/>
<path d="M46.3369 19.6511C45.6669 19.6511 45.1769 19.8811 44.8469 20.2611V19.7911H43.3469V26.7911H44.8469V24.3211C45.1769 24.7011 45.6669 24.9311 46.3369 24.9311C47.6469 24.9311 48.7269 23.7811 48.7269 22.2911C48.7269 20.8011 47.6469 19.6511 46.3369 19.6511ZM46.0369 23.5111C45.3469 23.5111 44.8469 23.0411 44.8469 22.2911C44.8469 21.5411 45.3469 21.0711 46.0369 21.0711C46.7269 21.0711 47.2269 21.5411 47.2269 22.2911C47.2269 23.0411 46.7269 23.5111 46.0369 23.5111Z" fill="white"/>
<path d="M52.5674 19.6511C51.8974 19.6511 51.4074 19.8811 51.0774 20.2611V19.7911H49.5774V26.7911H51.0774V24.3211C51.4074 24.7011 51.8974 24.9311 52.5674 24.9311C53.8774 24.9311 54.9574 23.7811 54.9574 22.2911C54.9574 20.8011 53.8774 19.6511 52.5674 19.6511ZM52.2674 23.5111C51.5774 23.5111 51.0774 23.0411 51.0774 22.2911C51.0774 21.5411 51.5774 21.0711 52.2674 21.0711C52.9574 21.0711 53.4574 21.5411 53.4574 22.2911C53.4574 23.0411 52.9574 23.5111 52.2674 23.5111Z" fill="white"/>
<path d="M55.8078 24.7911H57.3078V17.4911H55.8078V24.7911Z" fill="white"/>
<path d="M59.7455 22.8911H63.2955C63.3355 22.7011 63.3555 22.5011 63.3555 22.2911C63.3555 20.7811 62.2755 19.6511 60.8155 19.6511C59.2355 19.6511 58.1555 20.8011 58.1555 22.2911C58.1555 23.7811 59.2155 24.9311 60.9255 24.9311C61.8755 24.9311 62.6155 24.5811 63.1055 23.9011L61.9055 23.2111C61.7055 23.4311 61.3555 23.5911 60.9455 23.5911C60.3955 23.5911 59.9355 23.4111 59.7455 22.8911ZM59.7155 21.7711C59.8555 21.2611 60.2355 20.9811 60.8055 20.9811C61.2555 20.9811 61.7055 21.1911 61.8655 21.7711H59.7155Z" fill="white"/>
<path d="M69.2063 24.9311C70.7263 24.9311 71.8063 24.1311 71.8063 22.7811C71.8063 21.3011 70.6163 20.9311 69.5563 20.6111C68.4663 20.2811 68.2963 20.0611 68.2963 19.7411C68.2963 19.4611 68.5463 19.2111 69.0463 19.2111C69.6863 19.2111 70.0163 19.5211 70.2563 20.0211L71.6063 19.2311C71.0963 18.2011 70.1963 17.6511 69.0463 17.6511C67.8363 17.6511 66.6963 18.4311 66.6963 19.7811C66.6963 21.1211 67.7163 21.6211 68.7563 21.9111C69.8063 22.2011 70.2063 22.3711 70.2063 22.8011C70.2063 23.0711 70.0163 23.3711 69.2563 23.3711C68.4663 23.3711 68.0363 22.9811 67.7863 22.4011L66.4063 23.2011C66.7963 24.2311 67.7363 24.9311 69.2063 24.9311Z" fill="white"/>
<path d="M75.3394 21.2311V19.7911H74.3094V18.3911L72.8094 18.8411V19.7911H72.0094V21.2311H72.8094V23.0011C72.8094 24.4011 73.3794 24.9911 75.3394 24.7911V23.4311C74.6794 23.4711 74.3094 23.4311 74.3094 23.0011V21.2311H75.3394Z" fill="white"/>
<path d="M78.4911 24.9311C79.9611 24.9311 81.1411 23.7811 81.1411 22.2911C81.1411 20.8011 79.9611 19.6511 78.4911 19.6511C77.0211 19.6511 75.8411 20.8011 75.8411 22.2911C75.8411 23.7811 77.0211 24.9311 78.4911 24.9311ZM78.4911 23.4711C77.8411 23.4711 77.3411 23.0011 77.3411 22.2911C77.3411 21.5811 77.8411 21.1111 78.4911 21.1111C79.1411 21.1111 79.6411 21.5811 79.6411 22.2911C79.6411 23.0011 79.1411 23.4711 78.4911 23.4711Z" fill="white"/>
<path d="M83.4895 20.6811V19.7911H81.9895V24.7911H83.4895V22.5311C83.4895 21.5411 84.3695 21.2911 84.9895 21.3911V19.6911C84.3595 19.6911 83.6895 20.0111 83.4895 20.6811Z" fill="white"/>
<path d="M86.8842 22.8911H90.4342C90.4742 22.7011 90.4942 22.5011 90.4942 22.2911C90.4942 20.7811 89.4142 19.6511 87.9542 19.6511C86.3742 19.6511 85.2942 20.8011 85.2942 22.2911C85.2942 23.7811 86.3542 24.9311 88.0642 24.9311C89.0142 24.9311 89.7542 24.5811 90.2442 23.9011L89.0442 23.2111C88.8442 23.4311 88.4942 23.5911 88.0842 23.5911C87.5342 23.5911 87.0742 23.4111 86.8842 22.8911ZM86.8542 21.7711C86.9942 21.2611 87.3742 20.9811 87.9442 20.9811C88.3942 20.9811 88.8442 21.1911 89.0042 21.7711H86.8542Z" fill="white"/>
<path d="M50.728 10.748L49.828 11.03C49.63 10.802 49.336 10.664 48.934 10.664C48.148 10.664 47.5 11.354 47.5 12.248C47.5 13.142 48.148 13.832 48.934 13.832C49.336 13.832 49.63 13.694 49.828 13.466V13.748H50.728V10.748ZM49.114 12.98C48.7 12.98 48.4 12.698 48.4 12.248C48.4 11.798 48.7 11.516 49.114 11.516C49.528 11.516 49.828 11.798 49.828 12.248C49.828 12.698 49.528 12.98 49.114 12.98Z" fill="white"/>
</svg>
