<svg width="47" height="48" viewBox="0 0 47 48" fill="none" xmlns="http://www.w3.org/2000/svg">
<rect width="47" height="48" rx="13" fill="#F15A2B"/>
<path d="M32.8184 31.9286C32.3682 31.9378 31.926 31.809 31.5512 31.5595C31.2723 31.3772 30.9462 31.2802 30.613 31.2802C30.2797 31.2802 29.9537 31.3772 29.6747 31.5595C29.2961 31.8006 28.8566 31.9286 28.4077 31.9286C27.9589 31.9286 27.5194 31.8006 27.1408 31.5595C26.8618 31.377 26.5357 31.2799 26.2023 31.2799C25.869 31.2799 25.5429 31.377 25.2639 31.5595C24.8853 31.8006 24.4458 31.9286 23.9969 31.9286C23.5481 31.9286 23.1086 31.8006 22.7299 31.5595C22.4512 31.3772 22.1253 31.28 21.7922 31.28C21.459 31.28 21.1331 31.3772 20.8544 31.5595C20.5111 31.7876 20.1105 31.9144 19.6985 31.9253L19.6758 31.2767C19.9801 31.2695 20.2757 31.1732 20.5258 30.9997C20.9044 30.7587 21.3438 30.6307 21.7925 30.6307C22.2412 30.6307 22.6806 30.7587 23.0591 30.9997C23.3381 31.1821 23.6641 31.2792 23.9974 31.2792C24.3307 31.2792 24.6567 31.1821 24.9357 30.9997C25.3143 30.7585 25.754 30.6304 26.203 30.6304C26.6519 30.6304 27.0916 30.7585 27.4703 30.9997C27.7492 31.1821 28.0753 31.2792 28.4085 31.2792C28.7418 31.2792 29.0679 31.1821 29.3468 30.9997C29.7255 30.7588 30.165 30.6308 30.6138 30.6308C31.0626 30.6308 31.5021 30.7588 31.8808 30.9997C32.1604 31.1825 32.4872 31.2799 32.8213 31.2799C33.1554 31.2799 33.4822 31.1825 33.7618 30.9997C34.1362 30.751 34.5776 30.6224 35.027 30.6313V31.2799C34.6924 31.2708 34.3636 31.3686 34.0884 31.5592C33.7127 31.809 33.2695 31.9379 32.8184 31.9286Z" fill="white"/>
<path d="M15.1783 31.9285C14.7282 31.9378 14.2861 31.809 13.9115 31.5594C13.6364 31.3686 13.3075 31.2707 12.9729 31.2798V30.6312C13.4231 30.6218 13.8653 30.7506 14.24 31.0002C14.515 31.191 14.8437 31.289 15.1783 31.2798C15.513 31.289 15.8419 31.1909 16.1169 30.9999C16.4908 30.7504 16.9323 30.6217 17.3818 30.6312C17.8203 30.6213 18.2516 30.7442 18.6191 30.9837L18.2918 31.5435C18.0234 31.3628 17.7052 31.2706 17.3818 31.2798C17.0484 31.2708 16.721 31.3685 16.4471 31.5587C16.072 31.809 15.6291 31.9381 15.1783 31.9285Z" fill="white"/>
<path d="M32.8193 29.6579C32.3688 29.6671 31.9263 29.5383 31.5512 29.2888C31.272 29.1064 30.9456 29.0092 30.6121 29.0092C30.2785 29.0092 29.9522 29.1064 29.673 29.2888C29.2944 29.5298 28.855 29.6578 28.4062 29.6578C27.9574 29.6578 27.518 29.5298 27.1394 29.2888C26.8606 29.1065 26.5346 29.0094 26.2014 29.0094C25.8683 29.0094 25.5423 29.1065 25.2635 29.2888C24.8849 29.5299 24.4455 29.6579 23.9967 29.6579C23.5479 29.6579 23.1084 29.5299 22.7299 29.2888C22.451 29.1065 22.1251 29.0094 21.7919 29.0094C21.4588 29.0094 21.1328 29.1065 20.854 29.2888C20.4794 29.5384 20.0372 29.6672 19.5872 29.6579C19.1371 29.6672 18.695 29.5384 18.3204 29.2888C18.0455 29.0981 17.7169 29.0001 17.3824 29.0093C17.0481 29.0002 16.7196 29.0981 16.4448 29.2888C16.0708 29.5381 15.6294 29.6669 15.1799 29.6579C14.7298 29.6672 14.2875 29.5384 13.9128 29.2888C13.6374 29.0977 13.308 28.9997 12.9729 29.0093V28.3606C13.423 28.3513 13.8651 28.4801 14.2397 28.7297C14.5148 28.9204 14.8437 29.0184 15.1783 29.0093C15.5126 29.0183 15.8412 28.9204 16.1159 28.7297C16.49 28.4804 16.9314 28.3516 17.3808 28.3606C17.8312 28.351 18.2737 28.4799 18.6486 28.7297C18.9236 28.9205 19.2523 29.0184 19.5868 29.0093C19.9214 29.0184 20.2501 28.9205 20.5251 28.7297C20.9037 28.4886 21.3431 28.3605 21.7919 28.3605C22.2407 28.3605 22.6802 28.4886 23.0587 28.7297C23.3376 28.9121 23.6636 29.0092 23.9968 29.0092C24.3301 29.0092 24.6561 28.9121 24.935 28.7297C25.3135 28.4886 25.753 28.3605 26.2018 28.3605C26.6506 28.3605 27.09 28.4886 27.4686 28.7297C27.7475 28.9121 28.0735 29.0092 28.4067 29.0092C28.7399 29.0092 29.0659 28.9121 29.3448 28.7297C29.7237 28.4887 30.1635 28.3607 30.6126 28.3607C31.0617 28.3607 31.5014 28.4887 31.8804 28.7297C32.1597 28.912 32.4862 29.0091 32.8198 29.0091C33.1534 29.0091 33.4798 28.912 33.7592 28.7297C34.1342 28.4803 34.5766 28.3515 35.027 28.3606V29.0093C34.6917 28.9998 34.3621 29.0977 34.0864 29.2888C33.7115 29.5381 33.2694 29.6669 32.8193 29.6579Z" fill="white"/>
<path d="M32.8184 27.388C32.3683 27.3972 31.9261 27.2684 31.5513 27.0189C31.2762 26.8282 30.9473 26.7303 30.6127 26.7394C30.3671 26.7309 30.1232 26.7833 29.9028 26.8918L29.6167 26.308C29.9263 26.1563 30.268 26.0814 30.6127 26.0897C31.0634 26.0806 31.5061 26.2097 31.8811 26.4598C32.1608 26.6426 32.4876 26.7399 32.8217 26.7399C33.1558 26.7399 33.4826 26.6426 33.7622 26.4598C34.1364 26.2109 34.5777 26.0821 35.0271 26.0907V26.7394C34.6925 26.7302 34.3637 26.828 34.0885 27.0186C33.7128 27.2685 33.2696 27.3974 32.8184 27.388Z" fill="white"/>
<path d="M28.4043 27.3879C27.9548 27.3973 27.5133 27.2686 27.1394 27.0191C26.8604 26.8366 26.5343 26.7395 26.201 26.7395C25.8676 26.7395 25.5415 26.8366 25.2625 27.0191C24.8839 27.2602 24.4444 27.3882 23.9955 27.3882C23.5467 27.3882 23.1072 27.2602 22.7286 27.0191C22.4496 26.8367 22.1236 26.7396 21.7903 26.7396C21.457 26.7396 21.131 26.8367 20.852 27.0191C20.4775 27.2683 20.0357 27.397 19.5859 27.3879C19.1358 27.3972 18.6937 27.2684 18.3191 27.0188C18.0439 26.8281 17.7151 26.7301 17.3805 26.7392C17.0471 26.7302 16.7197 26.828 16.4458 27.0181C16.0711 27.2682 15.6287 27.3972 15.1783 27.3879C14.7282 27.3972 14.2861 27.2684 13.9115 27.0188C13.6364 26.8281 13.3075 26.7301 12.9729 26.7392V26.0906C13.4231 26.0812 13.8653 26.21 14.24 26.4597C14.515 26.6504 14.8437 26.7484 15.1783 26.7392C15.513 26.7484 15.8419 26.6503 16.1169 26.4593C16.4908 26.2098 16.9323 26.0811 17.3818 26.0906C17.8318 26.0813 18.2739 26.2101 18.6486 26.4597C18.9236 26.6504 19.2523 26.7484 19.5868 26.7392C19.9215 26.7483 20.2503 26.6504 20.5254 26.4597C20.9041 26.2186 21.3436 26.0906 21.7924 26.0906C22.2413 26.0906 22.6808 26.2186 23.0594 26.4597C23.3383 26.642 23.6644 26.7391 23.9977 26.7391C24.3309 26.7391 24.657 26.642 24.9359 26.4597C25.3146 26.2184 25.7543 26.0903 26.2032 26.0903C26.6522 26.0903 27.0919 26.2184 27.4705 26.4597C27.7563 26.6518 28.0951 26.7495 28.4393 26.7389C28.4643 26.7392 28.4893 26.7379 28.5142 26.735L28.6005 27.3778C28.5354 27.3854 28.4698 27.3888 28.4043 27.3879Z" fill="white"/>
<path d="M32.8193 25.1174C32.3688 25.1266 31.9263 24.9978 31.5512 24.7483C31.272 24.5658 30.9456 24.4687 30.6121 24.4687C30.2785 24.4687 29.9522 24.5658 29.673 24.7483C29.2944 24.9893 28.855 25.1173 28.4062 25.1173C27.9574 25.1173 27.518 24.9893 27.1394 24.7483C26.8606 24.5659 26.5346 24.4688 26.2014 24.4688C25.8683 24.4688 25.5423 24.5659 25.2635 24.7483C24.8849 24.9893 24.4455 25.1174 23.9967 25.1174C23.5479 25.1174 23.1084 24.9893 22.7299 24.7483C22.451 24.5659 22.1251 24.4688 21.7919 24.4688C21.4588 24.4688 21.1328 24.5659 20.854 24.7483C20.4794 24.9979 20.0372 25.1267 19.5872 25.1174C19.1371 25.1267 18.695 24.9979 18.3204 24.7483C18.0455 24.5575 17.7169 24.4596 17.3824 24.4687C17.0481 24.4596 16.7196 24.5576 16.4448 24.7483C16.0708 24.9976 15.6294 25.1264 15.1799 25.1174C14.7298 25.1267 14.2875 24.9979 13.9128 24.7483C13.6374 24.5572 13.308 24.4592 12.9729 24.4687V23.8201C13.423 23.8108 13.8651 23.9396 14.2397 24.1892C14.5148 24.3799 14.8437 24.4778 15.1783 24.4687C15.5126 24.4778 15.8412 24.3799 16.1159 24.1892C16.49 23.9398 16.9314 23.811 17.3808 23.8201C17.8312 23.8105 18.2737 23.9393 18.6486 24.1892C18.9236 24.3799 19.2523 24.4779 19.5868 24.4687C19.9214 24.4779 20.2501 24.3799 20.5251 24.1892C20.9037 23.9481 21.3431 23.82 21.7919 23.82C22.2407 23.82 22.6802 23.9481 23.0587 24.1892C23.3376 24.3715 23.6636 24.4687 23.9968 24.4687C24.3301 24.4687 24.6561 24.3715 24.935 24.1892C25.3135 23.9481 25.753 23.82 26.2018 23.82C26.6506 23.82 27.09 23.9481 27.4686 24.1892C27.7475 24.3715 28.0735 24.4687 28.4067 24.4687C28.7399 24.4687 29.0659 24.3715 29.3448 24.1892C29.7237 23.9482 30.1635 23.8202 30.6126 23.8202C31.0617 23.8202 31.5014 23.9482 31.8804 24.1892C32.1597 24.3715 32.4862 24.4686 32.8198 24.4686C33.1534 24.4686 33.4798 24.3715 33.7592 24.1892C34.1342 23.9397 34.5766 23.8109 35.027 23.8201V24.4687C34.6917 24.4592 34.3621 24.5572 34.0864 24.7483C33.7115 24.9976 33.2694 25.1264 32.8193 25.1174Z" fill="white"/>
<path d="M28.1977 24.8423L27.5857 24.6276C27.7433 24.1748 27.8077 23.6947 27.775 23.2163C27.7423 22.738 27.6131 22.2711 27.3953 21.844L25.1675 17.4815C25.1455 17.4384 25.1335 17.3909 25.1322 17.3426C25.1309 17.2942 25.1404 17.2462 25.1601 17.202C25.1798 17.1578 25.2091 17.1186 25.2459 17.0872C25.2827 17.0558 25.3261 17.0331 25.3728 17.0206L29.8125 15.8368C29.9572 15.799 30.0811 15.7056 30.1572 15.5768C30.2333 15.4481 30.2556 15.2946 30.2191 15.1495C30.1826 15.0045 30.0903 14.8798 29.9622 14.8025C29.8342 14.7252 29.6809 14.7015 29.5355 14.7367L24.1621 16.021C24.0473 16.0482 23.9402 16.1014 23.8492 16.1766C23.7582 16.2518 23.6857 16.3469 23.6374 16.4546C23.5891 16.5623 23.5662 16.6796 23.5705 16.7976C23.5748 16.9155 23.6063 17.0309 23.6623 17.1348L25.258 20.0991C25.2985 20.1744 25.3076 20.2627 25.2833 20.3447C25.259 20.4267 25.2033 20.4958 25.1283 20.5369L23.0688 21.6721L22.7559 21.1038L24.5338 20.1237L23.0919 17.4422C22.9887 17.2508 22.931 17.0382 22.9231 16.8209C22.9152 16.6036 22.9574 16.3874 23.0465 16.189C23.1355 15.9906 23.269 15.8154 23.4366 15.6768C23.6041 15.5382 23.8014 15.4401 24.0129 15.3899L29.3838 14.1059C29.6964 14.0269 30.0277 14.0753 30.3046 14.2406C30.5816 14.4058 30.7816 14.6743 30.8606 14.9869C30.9396 15.2996 30.8911 15.6308 30.7259 15.9078C30.5607 16.1848 30.2922 16.3847 29.9795 16.4637L25.9274 17.5437L27.9733 21.5485C28.2309 22.054 28.3836 22.6064 28.4221 23.1725C28.4607 23.7385 28.3844 24.3065 28.1977 24.8423Z" fill="white"/>
<path d="M21.6222 21.7338L17.6809 23.9055L17.9938 24.4733L21.9351 22.3016L21.6222 21.7338Z" fill="white"/>
<path d="M31.1351 22.6852C30.654 22.6852 30.1837 22.5425 29.7837 22.2752C29.3837 22.008 29.0719 21.6281 28.8878 21.1836C28.7037 20.7391 28.6555 20.25 28.7494 19.7782C28.8432 19.3064 29.0749 18.8729 29.4151 18.5328C29.7553 18.1926 30.1887 17.9609 30.6605 17.8671C31.1324 17.7732 31.6214 17.8214 32.0659 18.0055C32.5104 18.1896 32.8903 18.5013 33.1576 18.9014C33.4248 19.3014 33.5675 19.7717 33.5675 20.2527C33.5668 20.8977 33.3103 21.516 32.8543 21.972C32.3983 22.428 31.78 22.6845 31.1351 22.6852ZM31.1351 18.469C30.7823 18.469 30.4374 18.5736 30.1441 18.7696C29.8507 18.9656 29.6221 19.2442 29.4871 19.5701C29.3521 19.8961 29.3167 20.2547 29.3856 20.6007C29.4544 20.9468 29.6243 21.2646 29.8737 21.5141C30.1232 21.7635 30.441 21.9334 30.7871 22.0023C31.1331 22.0711 31.4917 22.0358 31.8177 21.9007C32.1436 21.7657 32.4222 21.5371 32.6182 21.2438C32.8142 20.9504 32.9188 20.6055 32.9188 20.2527C32.9182 19.7798 32.7301 19.3265 32.3957 18.9921C32.0613 18.6577 31.608 18.4696 31.1351 18.469Z" fill="white"/>
</svg>
