<svg width="158" height="102" viewBox="0 0 158 102" fill="none" xmlns="http://www.w3.org/2000/svg">
<path d="M39 62C39 71.9411 47.0589 80 57 80L97 80C99.7614 80 102 77.7614 102 75L102 37C102 31.4772 97.5228 27 92 27L44 27C41.2386 27 39 29.2386 39 32L39 62Z" fill="#FFF1DA"/>
<path d="M90.9451 57.82C89.7369 58.0092 88.5622 58.3585 87.4938 58.8461C84.71 60.0854 83.1031 61.852 83.905 62.7916C84.7068 63.7312 87.6135 63.4877 90.3973 62.2485C91.4804 61.7781 92.4403 61.1773 93.218 60.4833C93.5787 60.148 93.6391 59.7307 93.3722 59.419L92.3305 58.1984C92.0655 57.8857 91.5218 57.7374 90.9451 57.82Z" fill="#D5D6DB"/>
<path d="M83.4935 40.8831C82.6175 41.0204 81.7656 41.2738 80.9908 41.6274C78.9728 42.5258 77.8069 43.8068 78.3879 44.4875C78.9688 45.1682 81.0773 44.9916 83.0952 44.0933C83.8805 43.752 84.5764 43.3162 85.1404 42.8129C85.4017 42.5699 85.4453 42.2675 85.2519 42.0415L84.4976 41.1577C84.3057 40.9311 83.9117 40.8233 83.4935 40.8831Z" fill="#D5D6DB"/>
<path d="M72.0879 41.5797C71.8923 41.5648 71.6843 41.6011 71.5046 41.6814L66.7632 43.7931C66.3666 43.9692 66.2112 44.3077 66.4164 44.5494C66.4634 44.6047 66.5272 44.652 66.6045 44.6884L78.4223 50.2925L94.2322 43.2509L72.0879 41.5797Z" fill="#029BC5"/>
<path d="M122.307 41.0156L79.4251 59.7141L54.0061 66.7143L41.0213 68.503L39.5703 66.8322L111.055 36.2627C113.185 35.3478 115.564 34.7854 117.95 34.6325C118.996 34.5694 120.029 34.5924 121.026 34.7008C121.91 34.7922 122.75 34.9691 123.52 35.2263C124.379 35.5177 126.009 35.5501 126.544 36.1317C126.546 36.1308 127.823 38.8019 122.307 41.0156V41.0156Z" fill="#E1E6E9"/>
<path d="M80.0801 57.4252L61.656 77.9961C61.4263 78.2851 61.5687 78.6082 61.9737 78.718C62.2222 78.7853 62.5251 78.7583 62.7785 78.6463L67.5062 76.5601C68.4155 76.1587 69.2188 75.6491 69.8664 75.0629L105.723 45.6335L80.0801 57.4252Z" fill="#029BC5"/>
<path d="M32.7727 56.1421C32.4592 56.0682 32.0877 56.1071 31.7754 56.2464L27.8541 57.9953C27.3198 58.2334 27.1113 58.6904 27.3883 59.0161C27.4411 59.078 27.5093 59.1325 27.5908 59.1773L38.7123 65.3127L50.2647 60.2597L32.7727 56.1421Z" fill="#029BC5"/>
<path d="M42.5329 66.5469L36.679 72.2761C36.5931 72.3585 36.6148 72.4617 36.7273 72.5066C36.8085 72.539 36.9187 72.533 37.0078 72.4915L40.6591 70.8833C40.6874 70.8708 40.7131 70.8551 40.7342 70.8373L49.3011 63.5686L42.5329 66.5469Z" fill="#029BC5"/>
<path d="M120.26 35.0006C119.23 34.8873 118.163 34.8639 117.084 34.9307C116.045 35.95 115.387 37.0945 115.175 38.2501C115.161 38.4822 115.433 38.649 115.783 38.6227C115.892 38.6144 116 38.5878 116.096 38.5453L122.835 35.551C122.04 35.2813 121.173 35.096 120.26 35.0006Z" fill="#029BC5"/>
<path d="M105.598 40.4598L110.021 38.4974L114.224 43.4028L109.801 45.3652L105.598 40.4598Z" fill="#D5D6DB"/>
<path d="M102.865 42.3266C102.332 42.5637 102.124 43.0178 102.399 43.3408L102.846 43.8642C103.139 44.179 103.801 44.2332 104.324 43.9852C104.822 43.7491 105.019 43.3212 104.774 43.006L104.327 42.4826C104.052 42.1599 103.398 42.0899 102.865 42.3266V42.3266Z" fill="#3A556A"/>
<path d="M98.9246 44.0114C98.392 44.2485 98.1833 44.7026 98.4588 45.0257L98.9052 45.549C99.1985 45.8638 99.8604 45.918 100.384 45.67C100.882 45.4339 101.078 45.006 100.833 44.6908L100.387 44.1674C100.111 43.8448 99.457 43.7749 98.9246 44.0114V44.0114Z" fill="#3A556A"/>
<path d="M94.984 45.6966C94.452 45.934 94.2441 46.3876 94.5194 46.7103L94.9657 47.2337C95.259 47.5484 95.9209 47.6026 96.4442 47.3547C96.9422 47.1185 97.1389 46.6907 96.8939 46.3755L96.4475 45.8521C96.172 45.5291 95.5169 45.4595 94.984 45.6966V45.6966Z" fill="#3A556A"/>
<path d="M91.0436 47.3813C90.5116 47.6187 90.3036 48.0723 90.5789 48.395L91.0253 48.9184C91.3186 49.2332 91.9805 49.2874 92.5038 49.0394C93.0018 48.8033 93.1985 48.3754 92.9535 48.0602L92.5071 47.5368C92.2314 47.2139 91.5762 47.1443 91.0436 47.3813V47.3813Z" fill="#3A556A"/>
<path d="M87.1048 49.0662C86.5724 49.3036 86.3643 49.7575 86.6398 50.0804L87.0865 50.604C87.3618 50.9268 88.0167 50.9964 88.5492 50.7594C89.0817 50.5225 89.2902 50.0687 89.0148 49.7459L88.5681 49.2222C88.2934 48.8991 87.6388 48.8291 87.1059 49.0657C87.1055 49.0659 87.1052 49.066 87.1048 49.0662Z" fill="#3A556A"/>
<path d="M83.1639 50.751C82.6315 50.9885 82.4234 51.4423 82.6989 51.7652L83.1456 52.2889C83.4209 52.6117 84.0758 52.6812 84.6083 52.4443C85.1408 52.2073 85.3492 51.7535 85.0739 51.4307L84.6272 50.9071C84.3525 50.584 83.6978 50.5139 83.165 50.7505C83.1645 50.7507 83.1641 50.7509 83.1639 50.751Z" fill="#3A556A"/>
<path d="M79.2239 52.4358C78.6915 52.6733 78.4834 53.1271 78.7589 53.45L79.2056 53.9736C79.4816 54.2961 80.1368 54.365 80.6687 54.1277C81.1997 53.8908 81.4077 53.438 81.1336 53.1156L80.687 52.592C80.4117 52.2689 79.7568 52.199 79.2239 52.4358Z" fill="#3A556A"/>
<path d="M75.284 54.1204C74.7516 54.3578 74.5435 54.8117 74.819 55.1346L75.2657 55.6582C75.5417 55.9807 76.1969 56.0496 76.7288 55.8123C77.2598 55.5754 77.4678 55.1226 77.1937 54.8002L76.747 54.2765C76.4718 53.9535 75.8169 53.8836 75.284 54.1204Z" fill="#3A556A"/>
<path d="M71.3445 55.8051C70.8122 56.0425 70.6041 56.4964 70.8795 56.8193L71.3262 57.3429C71.6022 57.6654 72.2574 57.7343 72.7893 57.497C73.3203 57.2601 73.5284 56.8073 73.2543 56.4849L72.8076 55.9612C72.5321 55.6383 71.8772 55.5684 71.3445 55.8051Z" fill="#3A556A"/>
<path d="M67.4026 57.4902C66.8701 57.7272 66.6617 58.181 66.9371 58.5038L66.9376 58.5045L67.3843 59.0281C67.6603 59.3506 68.3155 59.4195 68.8474 59.1822C69.3785 58.9453 69.5865 58.4925 69.3124 58.17L68.8657 57.6464C68.5904 57.3234 67.9356 57.2534 67.4026 57.4902Z" fill="#3A556A"/>
<path d="M63.4637 59.1746C62.9312 59.4115 62.7227 59.8653 62.9981 60.1881L62.9987 60.1888L63.4454 60.7124C63.7214 61.0349 64.3766 61.1038 64.9085 60.8665C65.4395 60.6296 65.6475 60.1768 65.3734 59.8544L64.9268 59.3308C64.6513 59.0078 63.9964 58.9379 63.4637 59.1746Z" fill="#3A556A"/>
</svg>
