<svg width="1190" height="420" viewBox="0 0 1190 420" fill="none" xmlns="http://www.w3.org/2000/svg">
<path opacity="0.2" d="M1170 33C1170 21.9543 1161.05 13 1150 13H129C57.7555 13 0.000244141 70.7553 0.000244141 142V400C0.000244141 411.046 8.95459 420 20.0002 420H1150C1161.05 420 1170 411.046 1170 400V33Z" fill="#DFD7F9"/>
<g opacity="0.1">
<mask id="mask0_4_931" style="mask-type:alpha" maskUnits="userSpaceOnUse" x="906" y="13" width="265" height="352">
<path d="M906.5 13.5H1146C1158.98 13.5 1169.5 24.0213 1169.5 37V364.022H956C928.662 364.022 906.5 341.86 906.5 314.522V13.5Z" fill="url(#paint0_linear_4_931)" stroke="#6246E5"/>
</mask>
<g mask="url(#mask0_4_931)">
<circle cx="1145.02" cy="191.32" r="91.8033" stroke="#6246E5"/>
<circle cx="1137.73" cy="181.604" r="102.734" stroke="#6246E5"/>
<circle cx="1131.66" cy="173.709" r="112.45" stroke="#6246E5"/>
<circle cx="1125.58" cy="162.171" r="120.952" stroke="#6246E5"/>
<circle cx="1119.81" cy="150.937" r="129.15" stroke="#6246E5"/>
<circle cx="1110.1" cy="138.185" r="141.902" stroke="#6246E5"/>
</g>
</g>
<g opacity="0.1">
<mask id="mask1_4_931" style="mask-type:alpha" maskUnits="userSpaceOnUse" x="0" y="59" width="472" height="361">
<rect x="471.5" y="59.5" width="360" height="471" transform="rotate(90 471.5 59.5)" fill="url(#paint1_linear_4_931)" stroke="#6246E5"/>
</mask>
<g mask="url(#mask1_4_931)">
<path d="M232.563 512.92C164.399 512.92 109.125 456.643 109.125 387.202C109.125 317.762 164.399 261.484 232.563 261.484C300.728 261.484 356.002 317.762 356.002 387.202C356.002 456.643 300.728 512.92 232.563 512.92Z" stroke="#6246E5"/>
<path d="M245.61 517.902C169.339 517.902 107.494 454.933 107.494 377.237C107.494 299.542 169.339 236.573 245.61 236.573C321.88 236.573 383.725 299.542 383.725 377.237C383.725 454.933 321.88 517.902 245.61 517.902Z" stroke="#6246E5"/>
<path d="M256.21 522.885C172.734 522.885 105.048 453.967 105.048 368.934C105.048 283.901 172.734 214.983 256.21 214.983C339.686 214.983 407.372 283.901 407.372 368.934C407.372 453.967 339.686 522.885 256.21 522.885Z" stroke="#6246E5"/>
<path d="M271.702 526.206C181.922 526.206 109.125 452.084 109.125 360.63C109.125 269.176 181.922 195.054 271.702 195.054C361.483 195.054 434.28 269.177 434.28 360.63C434.28 452.084 361.483 526.206 271.702 526.206Z" stroke="#6246E5"/>
<path d="M286.787 529.528C190.927 529.528 113.202 450.386 113.202 352.742C113.202 255.097 190.927 175.955 286.787 175.955C382.647 175.955 460.372 255.097 460.372 352.742C460.372 450.386 382.647 529.528 286.787 529.528Z" stroke="#6246E5"/>
<path d="M303.91 533.68C198.593 533.68 113.202 446.731 113.202 339.456C113.202 232.18 198.593 145.231 303.91 145.231C409.227 145.231 494.618 232.18 494.618 339.456C494.618 446.731 409.227 533.68 303.91 533.68Z" stroke="#6246E5"/>
</g>
</g>
<circle cx="1155" cy="35" r="35" fill="#FF8C6C"/>
<path d="M1172.61 23.9904C1173.3 25.1878 1173.21 26.6136 1172.37 27.711L1153.89 51.8182C1153.13 52.8123 1151.88 53.3191 1150.6 53.0729C1149.34 52.8313 1148.34 51.9156 1148 50.6841L1145.26 40.9555L1144.98 39.9435L1144.25 39.191L1137.19 31.9595C1136.29 31.0444 1136 29.724 1136.42 28.5154C1136.83 27.3206 1137.87 26.4536 1139.15 26.2856L1169.27 22.3404C1170.64 22.1604 1171.92 22.793 1172.61 23.9904Z" fill="white"/>
<path d="M1145.26 40.9555L1148 50.6841C1148.34 51.9157 1149.34 52.8313 1150.6 53.0729C1151.88 53.3192 1153.13 52.8124 1153.89 51.8182L1172.37 27.7111C1173.21 26.6137 1173.3 25.1879 1172.61 23.9905L1144.98 39.9436L1145.26 40.9555Z" fill="white"/>
<path d="M1156.22 33.4515C1156.5 33.9385 1156.34 34.5616 1155.85 34.8431L1145.26 40.9553L1144.98 39.9434L1144.25 39.1909L1154.83 33.0787C1155.32 32.7973 1155.94 32.9646 1156.22 33.4515Z" fill="black"/>
<path d="M1145.26 40.9554L1155.85 34.8432C1156.34 34.5617 1156.5 33.9387 1156.22 33.4517L1144.98 39.9435L1145.26 40.9554Z" fill="url(#paint2_linear_4_931)"/>
<defs>
<linearGradient id="paint0_linear_4_931" x1="1093.24" y1="22.8623" x2="911.232" y2="367.287" gradientUnits="userSpaceOnUse">
<stop stop-color="#747DEF"/>
<stop offset="1" stop-color="#5E3BE1"/>
</linearGradient>
<linearGradient id="paint1_linear_4_931" x1="728.035" y1="72.2425" x2="486.172" y2="538.354" gradientUnits="userSpaceOnUse">
<stop stop-color="#747DEF"/>
<stop offset="1" stop-color="#5E3BE1"/>
</linearGradient>
<linearGradient id="paint2_linear_4_931" x1="1152.9" y1="35.4017" x2="1153.51" y2="36.5259" gradientUnits="userSpaceOnUse">
<stop stop-color="white"/>
<stop offset="1" stop-color="#F7F7F7"/>
</linearGradient>
</defs>
</svg>
