<svg width="1170" height="407" viewBox="0 0 1170 407" fill="none" xmlns="http://www.w3.org/2000/svg">
<path opacity="0.2" d="M1170 20C1170 8.9543 1161.05 0 1150 0H129C57.7555 0 0.000244141 57.7553 0.000244141 129V387C0.000244141 398.046 8.95459 407 20.0002 407H1150C1161.05 407 1170 398.046 1170 387V20Z" fill="#DFD7F9"/>
<g opacity="0.1">
<mask id="mask0_4_931" style="mask-type:alpha" maskUnits="userSpaceOnUse" x="906" y="0" width="265" height="352">
<path d="M906.5 0.5H1146C1158.98 0.5 1169.5 11.0213 1169.5 24V351.022H956C928.662 351.022 906.5 328.86 906.5 301.522V0.5Z" fill="url(#paint0_linear_4_931)" stroke="#6246E5"/>
</mask>
<g mask="url(#mask0_4_931)">
<circle cx="1145.02" cy="178.32" r="91.8033" stroke="#6246E5"/>
<circle cx="1137.73" cy="168.604" r="102.734" stroke="#6246E5"/>
<circle cx="1131.66" cy="160.709" r="112.45" stroke="#6246E5"/>
<circle cx="1125.58" cy="149.171" r="120.952" stroke="#6246E5"/>
<circle cx="1119.81" cy="137.937" r="129.15" stroke="#6246E5"/>
<circle cx="1110.1" cy="125.185" r="141.902" stroke="#6246E5"/>
</g>
</g>
<g opacity="0.1">
<mask id="mask1_4_931" style="mask-type:alpha" maskUnits="userSpaceOnUse" x="0" y="46" width="472" height="361">
<rect x="471.5" y="46.5" width="360" height="471" transform="rotate(90 471.5 46.5)" fill="url(#paint1_linear_4_931)" stroke="#6246E5"/>
</mask>
<g mask="url(#mask1_4_931)">
<path d="M232.563 499.92C164.399 499.92 109.125 443.643 109.125 374.202C109.125 304.762 164.399 248.484 232.563 248.484C300.728 248.484 356.002 304.762 356.002 374.202C356.002 443.643 300.728 499.92 232.563 499.92Z" stroke="#6246E5"/>
<path d="M245.61 504.902C169.339 504.902 107.494 441.933 107.494 364.237C107.494 286.542 169.339 223.573 245.61 223.573C321.88 223.573 383.725 286.542 383.725 364.237C383.725 441.933 321.88 504.902 245.61 504.902Z" stroke="#6246E5"/>
<path d="M256.21 509.885C172.734 509.885 105.048 440.967 105.048 355.934C105.048 270.901 172.734 201.983 256.21 201.983C339.686 201.983 407.372 270.901 407.372 355.934C407.372 440.967 339.686 509.885 256.21 509.885Z" stroke="#6246E5"/>
<path d="M271.702 513.206C181.922 513.206 109.125 439.084 109.125 347.63C109.125 256.176 181.922 182.054 271.702 182.054C361.483 182.054 434.28 256.176 434.28 347.63C434.28 439.084 361.483 513.206 271.702 513.206Z" stroke="#6246E5"/>
<path d="M286.787 516.528C190.927 516.528 113.202 437.386 113.202 339.742C113.202 242.097 190.927 162.955 286.787 162.955C382.647 162.955 460.372 242.097 460.372 339.742C460.372 437.386 382.647 516.528 286.787 516.528Z" stroke="#6246E5"/>
<path d="M303.91 520.68C198.593 520.68 113.202 433.731 113.202 326.456C113.202 219.18 198.593 132.231 303.91 132.231C409.227 132.231 494.618 219.18 494.618 326.456C494.618 433.731 409.227 520.68 303.91 520.68Z" stroke="#6246E5"/>
</g>
</g>
<defs>
<linearGradient id="paint0_linear_4_931" x1="1093.24" y1="9.86234" x2="911.232" y2="354.287" gradientUnits="userSpaceOnUse">
<stop stop-color="#747DEF"/>
<stop offset="1" stop-color="#5E3BE1"/>
</linearGradient>
<linearGradient id="paint1_linear_4_931" x1="728.035" y1="59.2425" x2="486.172" y2="525.354" gradientUnits="userSpaceOnUse">
<stop stop-color="#747DEF"/>
<stop offset="1" stop-color="#5E3BE1"/>
</linearGradient>
</defs>
</svg>
