<svg width="29" height="28" viewBox="0 0 29 28" fill="none" xmlns="http://www.w3.org/2000/svg">
<path d="M19.8508 3.49996H24.5175C24.8269 3.49996 25.1237 3.62288 25.3425 3.84167C25.5612 4.06046 25.6842 4.35721 25.6842 4.66663V23.3333C25.6842 23.6427 25.5612 23.9395 25.3425 24.1583C25.1237 24.377 24.8269 24.5 24.5175 24.5H3.5175C3.20808 24.5 2.91133 24.377 2.69254 24.1583C2.47375 23.9395 2.35083 23.6427 2.35083 23.3333V4.66663C2.35083 4.35721 2.47375 4.06046 2.69254 3.84167C2.91133 3.62288 3.20808 3.49996 3.5175 3.49996H8.18416V1.16663H10.5175V3.49996H17.5175V1.16663H19.8508V3.49996ZM17.5175 5.83329H10.5175V8.16663H8.18416V5.83329H4.68416V10.5H23.3508V5.83329H19.8508V8.16663H17.5175V5.83329ZM23.3508 12.8333H4.68416V22.1666H23.3508V12.8333Z" fill="#3E4958"/>
</svg>
