<svg width="29" height="28" viewBox="0 0 29 28" fill="none" xmlns="http://www.w3.org/2000/svg">
<path d="M24.7893 23.3333C24.7893 23.6427 24.6664 23.9395 24.4476 24.1582C24.2288 24.377 23.9321 24.5 23.6226 24.5H4.95597C4.64655 24.5 4.34981 24.377 4.13102 24.1582C3.91222 23.9395 3.78931 23.6427 3.78931 23.3333V11.0716C3.78918 10.8938 3.82969 10.7184 3.90774 10.5586C3.98579 10.3989 4.09931 10.2591 4.23964 10.15L13.573 2.89095C13.7778 2.73164 14.0298 2.64514 14.2893 2.64514C14.5488 2.64514 14.8008 2.73164 15.0056 2.89095L24.339 10.15C24.4793 10.2591 24.5928 10.3989 24.6709 10.5586C24.7489 10.7184 24.7894 10.8938 24.7893 11.0716V23.3333ZM22.456 22.1666V11.641L14.2893 5.28962L6.12264 11.641V22.1666H22.456Z" fill="#3E4958"/>
</svg>
