<svg width="29" height="28" viewBox="0 0 29 28" fill="none" xmlns="http://www.w3.org/2000/svg">
<path d="M23.8075 25.6666H21.4742V23.3333C21.4742 22.405 21.1055 21.5148 20.4491 20.8584C19.7927 20.202 18.9025 19.8333 17.9742 19.8333H10.9742C10.0459 19.8333 9.15571 20.202 8.49933 20.8584C7.84295 21.5148 7.4742 22.405 7.4742 23.3333V25.6666H5.14087V23.3333C5.14087 21.7862 5.75545 20.3025 6.84941 19.2085C7.94337 18.1145 9.42711 17.5 10.9742 17.5H17.9742C19.5213 17.5 21.005 18.1145 22.099 19.2085C23.193 20.3025 23.8075 21.7862 23.8075 23.3333V25.6666ZM14.4742 15.1666C13.5549 15.1666 12.6447 14.9856 11.7954 14.6338C10.9461 14.282 10.1745 13.7664 9.52445 13.1164C8.87444 12.4664 8.35883 11.6947 8.00705 10.8454C7.65526 9.99613 7.4742 9.08588 7.4742 8.16663C7.4742 7.24737 7.65526 6.33712 8.00705 5.48784C8.35883 4.63856 8.87444 3.86689 9.52445 3.21688C10.1745 2.56687 10.9461 2.05125 11.7954 1.69947C12.6447 1.34769 13.5549 1.16663 14.4742 1.16663C16.3307 1.16663 18.1112 1.90412 19.4239 3.21688C20.7367 4.52963 21.4742 6.31011 21.4742 8.16663C21.4742 10.0231 20.7367 11.8036 19.4239 13.1164C18.1112 14.4291 16.3307 15.1666 14.4742 15.1666ZM14.4742 12.8333C15.7119 12.8333 16.8989 12.3416 17.774 11.4665C18.6492 10.5913 19.1409 9.4043 19.1409 8.16663C19.1409 6.92895 18.6492 5.74196 17.774 4.86679C16.8989 3.99162 15.7119 3.49996 14.4742 3.49996C13.2365 3.49996 12.0495 3.99162 11.1744 4.86679C10.2992 5.74196 9.80754 6.92895 9.80754 8.16663C9.80754 9.4043 10.2992 10.5913 11.1744 11.4665C12.0495 12.3416 13.2365 12.8333 14.4742 12.8333Z" fill="#3E4958"/>
</svg>
