<svg width="141" height="130" viewBox="0 0 141 130" fill="none" xmlns="http://www.w3.org/2000/svg">
<path d="M81.1222 73.2547C79.9764 73.5113 78.8605 73.9866 77.8436 74.6508C75.1944 76.3389 73.6531 78.7485 74.4012 80.0324C75.1493 81.3163 77.9034 80.988 80.5526 79.2999C81.5831 78.6592 82.4986 77.8403 83.2427 76.894C83.5881 76.4367 83.65 75.867 83.401 75.4411L82.4291 73.7732C82.1819 73.3459 81.669 73.1427 81.1222 73.2547Z" fill="#D5D6DB"/>
<path d="M74.4697 50.4863C73.6389 50.6725 72.8296 51.0173 72.0922 51.499C70.1717 52.7227 69.0534 54.4699 69.5954 55.4001C70.1375 56.3303 72.1352 56.092 74.0555 54.8684C74.8028 54.4035 75.4665 53.8095 76.0062 53.1232C76.2563 52.7918 76.3011 52.379 76.1206 52.0702L75.4169 50.8625C75.2378 50.5528 74.8662 50.4052 74.4697 50.4863Z" fill="#D5D6DB"/>
<path d="M63.6608 51.4397C63.4759 51.4191 63.2787 51.4684 63.1077 51.5776L58.5965 54.4524C58.2192 54.6921 58.0682 55.1538 58.2596 55.4838C58.3034 55.5594 58.3633 55.6239 58.436 55.6737L69.5546 63.3368L84.5969 53.7508L63.6608 51.4397Z" fill="#029BC5"/>
<path d="M111.214 50.3562L70.2779 76.1266L46.059 85.7638L33.7077 88.219L32.3489 85.9102L100.583 43.7807C102.617 42.5198 104.882 41.7458 107.15 41.5374C108.143 41.4514 109.124 41.4845 110.07 41.6353C110.908 41.7624 111.703 42.0076 112.432 42.3636C113.245 42.767 114.792 42.8136 115.294 43.6172C115.295 43.616 116.478 47.3057 111.214 50.3562Z" fill="#E1E6E9"/>
<path d="M70.8207 72.7167L53.1114 100.948C52.8902 101.345 53.0216 101.789 53.4044 101.94C53.6393 102.033 53.9269 101.996 54.1685 101.843L58.6761 98.9832C59.5431 98.433 60.3108 97.7341 60.9317 96.9298L95.2756 56.5528L70.8207 72.7167Z" fill="#029BC5"/>
<path d="M26.133 71.7742C25.8376 71.6732 25.486 71.7256 25.1893 71.9146L21.4632 74.2876C20.9554 74.6107 20.7531 75.2319 21.0111 75.6753C21.0603 75.7596 21.1241 75.8338 21.2007 75.8949L31.6403 84.2558L42.6167 77.3999L26.133 71.7742Z" fill="#029BC5"/>
<path d="M35.1394 85.7631L29.5205 93.6324C29.4381 93.7455 29.4575 93.8875 29.5637 93.9494C29.6404 93.9939 29.745 93.9859 29.83 93.9289L33.3121 91.7224C33.3391 91.7053 33.3636 91.6838 33.3839 91.6593L41.594 81.6768L35.1394 85.7631Z" fill="#029BC5"/>
<path d="M109.398 41.9746C108.424 41.8182 107.414 41.7848 106.391 41.8747C105.395 43.2674 104.758 44.8318 104.544 46.412C104.529 46.7295 104.784 46.9579 105.116 46.9224C105.219 46.9112 105.321 46.875 105.414 46.817L111.831 42.7309C111.08 42.3609 110.261 42.1063 109.398 41.9746Z" fill="#029BC5"/>
<path d="M95.4133 49.4885L99.603 46.8425L103.505 53.4799L99.3158 56.1259L95.4133 49.4885Z" fill="#D5D6DB"/>
<path d="M92.7772 52.1136C92.2723 52.4334 92.0705 53.0482 92.3268 53.4865L92.7421 54.1967C93.0153 54.6239 93.6388 54.6991 94.135 54.3644C94.6073 54.0458 94.7974 53.4666 94.5698 53.0389L94.1546 52.3287C93.8985 51.8907 93.2821 51.7943 92.7772 52.1136Z" fill="#3A556A"/>
<path d="M89.0116 54.4521C88.5067 54.7719 88.3049 55.3867 88.5612 55.825L88.9765 56.5352C89.2496 56.9624 89.8732 57.0376 90.3694 56.7029C90.8416 56.3843 91.0318 55.8051 90.8042 55.3774L90.389 54.6672C90.1326 54.2293 89.5162 54.1329 89.0116 54.4521Z" fill="#3A556A"/>
<path d="M85.2446 56.7914C84.7403 57.1117 84.5393 57.7256 84.7954 58.1636L85.2106 58.8738C85.4838 59.301 86.1074 59.3761 86.6035 59.0415C87.0758 58.7229 87.2659 58.1437 87.0384 57.716L86.6231 57.0058C86.3668 56.5675 85.7497 56.4715 85.2446 56.7914Z" fill="#3A556A"/>
<path d="M81.479 59.1299C80.9747 59.4501 80.7736 60.0642 81.0297 60.5022L81.445 61.2124C81.7181 61.6396 82.3417 61.7147 82.8379 61.3801C83.3101 61.0614 83.5003 60.4822 83.2727 60.0545L82.8575 59.3443C82.6009 58.9061 81.9839 58.8101 81.479 59.1299Z" fill="#3A556A"/>
<path d="M77.7137 61.4686C77.2091 61.789 77.0079 62.4032 77.2641 62.8414L77.6796 63.5519C77.9358 63.9899 78.5526 64.0858 79.0573 63.7662C79.562 63.4465 79.7635 62.8323 79.5074 62.3943L79.0919 61.6838C78.8364 61.2454 78.2198 61.1488 77.7148 61.4679C77.7143 61.4682 77.7141 61.4683 77.7137 61.4686Z" fill="#3A556A"/>
<path d="M73.9481 63.8072C73.4434 64.1275 73.2423 64.7418 73.4985 65.18L73.914 65.8905C74.1702 66.3285 74.787 66.4244 75.2917 66.1047C75.7964 65.7851 75.9979 65.1708 75.7418 64.7328L75.3263 64.0223C75.0708 63.5839 74.4542 63.4874 73.9491 63.8065C73.9487 63.8068 73.9483 63.807 73.9481 63.8072Z" fill="#3A556A"/>
<path d="M70.1822 66.1458C69.6776 66.4662 69.4764 67.0804 69.7326 67.5186L70.1481 68.2291C70.4049 68.6666 71.022 68.7616 71.5262 68.4415C72.0295 68.122 72.2306 67.5091 71.9756 67.0716L71.5601 66.3611C71.3041 65.9228 70.6873 65.8264 70.1822 66.1458Z" fill="#3A556A"/>
<path d="M66.4163 68.4843C65.9117 68.8047 65.7105 69.419 65.9668 69.8572L66.3823 70.5677C66.639 71.0053 67.2561 71.1002 67.7603 70.7801C68.2636 70.4606 68.4647 69.8476 68.2098 69.4102L67.7943 68.6997C67.5382 68.2613 66.9214 68.1649 66.4163 68.4843Z" fill="#3A556A"/>
<path d="M62.6507 70.8229C62.1461 71.1432 61.9449 71.7575 62.2011 72.1956L62.6166 72.9061C62.8734 73.3437 63.4905 73.4387 63.9947 73.1186C64.498 72.799 64.6991 72.1861 64.4441 71.7486L64.0286 71.0382C63.7724 70.6 63.1556 70.5036 62.6507 70.8229Z" fill="#3A556A"/>
<path d="M58.8838 73.1621C58.3791 73.4818 58.1776 74.096 58.4338 74.534L58.4343 74.5349L58.8498 75.2454C59.1066 75.683 59.7237 75.778 60.2278 75.4579C60.7312 75.1383 60.9323 74.5254 60.6773 74.0879L60.2618 73.3774C60.0058 72.9391 59.389 72.8426 58.8838 73.1621Z" fill="#3A556A"/>
<path d="M55.1192 75.4999C54.6145 75.8196 54.413 76.4338 54.6691 76.8718L54.6696 76.8727L55.0852 77.5832C55.3419 78.0208 55.959 78.1157 56.4632 77.7956C56.9666 77.4761 57.1677 76.8632 56.9127 76.4257L56.4972 75.7152C56.2409 75.2771 55.6241 75.1806 55.1192 75.4999Z" fill="#3A556A"/>
</svg>
